<svg width="512" height="512" viewBox="0 0 512 512" fill="none" xmlns="http://www.w3.org/2000/svg">
  <rect width="512" height="512" rx="96" fill="#2563EB"/>
  <path d="M128 96C128 85.4907 136.491 77 147 77H256C266.509 77 275 85.4907 275 96V416C275 426.509 266.509 435 256 435H147C136.491 435 128 426.509 128 416V96Z" fill="white" opacity="0.9"/>
  <path d="M240 77H365C375.509 77 384 85.4907 384 96V416C384 426.509 375.509 435 365 435H256C245.491 435 237 426.509 237 416V77H240Z" fill="white" opacity="0.7"/>
  <line x1="192" y1="160" x2="208" y2="160" stroke="white" stroke-width="20" stroke-linecap="round"/>
  <line x1="192" y1="208" x2="208" y2="208" stroke="white" stroke-width="20" stroke-linecap="round"/>
  <line x1="192" y1="256" x2="208" y2="256" stroke="white" stroke-width="20" stroke-linecap="round"/>
</svg>

